<svg xmlns="http://www.w3.org/2000/svg" viewBox="0 0 1024 1024" width="1024" height="1024">
  <rect width="1024" height="1024" fill="#0a0a0a"></rect>
  <g transform="translate(278.98 71.73) scale(0.69663)">
    <rect x="205" y="187" width="259" height="890" fill="#ffffff"></rect>
    <path d="M 215 197 L 454 197 L 454 536.3 L 454.0 536.3 L 451.0 548.1 L 448.0 559.4 L 445.0 570.3 L 442.0 580.8 L 439.1 590.9 L 436.1 600.6 L 433.1 609.9 L 430.1 618.9 L 427.1 627.5 L 424.1 635.8 L 421.1 643.8 L 418.1 651.5 L 415.2 658.9 L 412.2 666.0 L 409.2 672.8 L 406.2 679.4 L 403.2 685.8 L 400.2 691.8 L 397.2 697.7 L 394.3 703.3 L 391.3 708.8 L 388.3 714.0 L 385.3 719.0 L 382.3 723.8 L 379.3 728.5 L 376.3 733.0 L 373.3 737.3 L 370.4 741.4 L 367.4 745.4 L 364.4 749.2 L 361.4 752.9 L 358.4 756.4 L 355.4 759.8 L 352.4 763.1 L 349.4 766.3 L 346.5 769.3 L 343.5 772.2 L 340.5 775.0 L 337.5 777.7 L 334.5 780.3 L 331.5 782.8 L 328.5 785.2 L 325.5 787.5 L 322.6 789.7 L 319.6 791.9 L 316.6 793.9 L 313.6 795.9 L 310.6 797.8 L 307.6 799.7 L 304.6 801.4 L 301.6 803.1 L 298.6 804.8 L 295.7 806.3 L 292.7 807.8 L 289.7 809.3 L 286.7 810.7 L 283.7 812.0 L 280.7 813.3 L 277.7 814.6 L 274.8 815.8 L 271.8 816.9 L 268.8 818.0 L 265.8 819.1 L 262.8 820.1 L 259.8 821.1 L 256.8 822.0 L 253.8 823.0 L 250.8 823.8 L 247.9 824.7 L 244.9 825.5 L 241.9 826.3 L 238.9 827.0 L 235.9 827.8 L 232.9 828.4 L 229.9 829.1 L 226.9 829.8 L 224.0 830.4 L 221.0 831.0 L 218.0 831.5 L 215.0 832.1 Z" fill="#0a0a0a"></path>
  </g>
</svg>